<svg xmlns="http://www.w3.org/2000/svg" width="8" height="8" viewBox="0 0 8 8" fill="none"><path d="M3.85881 0.262265L3.44414 0.680458C3.38743 0.737648 3.30577 0.76249 3.22682 0.746566L2.45645 0.591182C2.33773 0.567236 2.21983 0.635728 2.18182 0.750719L1.95452 1.43842C1.93087 1.50996 1.87492 1.56619 1.8035 1.5902L1.12633 1.81785C1.01043 1.85681 0.942516 1.97686 0.968828 2.09627L1.11798 2.77316C1.13409 2.84626 1.11508 2.92268 1.06661 2.97971L0.612385 3.51414C0.536409 3.60353 0.536409 3.73481 0.612385 3.8242L1.06864 4.36102C1.11596 4.4167 1.13526 4.49094 1.12104 4.56262L0.959661 5.3764C0.937956 5.48585 0.994743 5.59578 1.09656 5.64141L1.82544 5.96811C1.88399 5.99436 1.92955 6.043 1.95191 6.10313L2.17715 6.70889C2.2182 6.81927 2.33342 6.8834 2.44886 6.86012L3.22682 6.7032C3.30577 6.68728 3.38743 6.71212 3.44414 6.76931L3.85881 7.1875C3.94743 7.27688 4.09013 7.28236 4.18535 7.20005L4.70082 6.75446C4.75684 6.70604 4.83212 6.68626 4.9047 6.7009L5.66994 6.85525C5.79553 6.88058 5.9188 6.80254 5.94962 6.67819L6.08606 6.1278C6.10454 6.05327 6.15765 5.99212 6.22886 5.9634L7.03654 5.63758C7.14318 5.59456 7.20416 5.4818 7.18179 5.369L7.02188 4.56262C7.00766 4.49094 7.02696 4.4167 7.07429 4.36102L7.53054 3.8242C7.60651 3.73481 7.60651 3.60353 7.53054 3.51414L7.07631 2.97971C7.02784 2.92268 7.00884 2.84626 7.02494 2.77316L7.17266 2.1028C7.19957 1.98066 7.12792 1.85838 7.0082 1.82216L6.24975 1.59269C6.16683 1.5676 6.10393 1.49967 6.08529 1.41507L5.9451 0.778867C5.91701 0.65138 5.79196 0.569906 5.66399 0.595717L4.9047 0.748866C4.83212 0.763506 4.75684 0.743732 4.70082 0.695306L4.18535 0.249717C4.09013 0.167405 3.94743 0.172889 3.85881 0.262265Z" fill="#33D16B" stroke="#33D16B" stroke-width="0.331462" stroke-linejoin="round"></path><path d="M2.69684 3.90182L3.69122 4.68181L5.45902 2.5647" stroke="white" stroke-width="0.662924" stroke-linecap="round" stroke-linejoin="round"></path></svg>